<svg xmlns="http://www.w3.org/2000/svg" xmlns:xlink="http://www.w3.org/1999/xlink" width="741" height="142" viewBox="0 0 741 142">
  <defs>
    <linearGradient id="linear-gradient" x1="1.164" y1="-0.194" x2="-0.145" y2="1.225" gradientUnits="objectBoundingBox">
      <stop offset="0" stop-color="#0048b2"/>
      <stop offset="1" stop-color="#012034"/>
    </linearGradient>
  </defs>
  <g id="Group_188" data-name="Group 188" transform="translate(-6621 253)">
    <g id="Group_95" data-name="Group 95" transform="translate(-56 -392)">
      <rect id="Rectangle_1" data-name="Rectangle 1" width="137" height="137" rx="24" transform="translate(6677 142)" fill="url(#linear-gradient)"/>
      <g id="Group_94" data-name="Group 94" transform="translate(12258.933 -1306.114)">
        <path id="Path_130" data-name="Path 130" d="M-5552.826,1549.561v-1.779q0-17.65,0-35.3c0-.833.048-1.482-1.038-1.911-4.714-1.861-5.5-7.456-1.5-10.684,5.179-4.191,10.425-8.3,15.644-12.445q12.11-9.612,24.224-19.221c1.851-1.469,2.227-1.475,4.055-.023,12.925,10.261,25.712,20.7,38.844,30.691,4.867,3.7,4.736,10.168-1.444,12.195v38.481c.963,0,1.876-.025,2.788.005,1.507.049,2.211.695,2.224,2.208q.053,6.56,0,13.12c-.014,1.485-.756,2.146-2.241,2.21-.312.013-.625,0-.937,0h-82.479c-2.8,0-3.217-.426-3.218-3.283q0-5.623,0-11.245c0-2.542.475-3.012,2.993-3.02C-5554.3,1549.559-5553.683,1549.561-5552.826,1549.561Zm22.5-23.134v-1.974q0-9.211,0-18.422c0-2.142.554-2.727,2.651-2.73q14.209-.019,28.417,0c2.095,0,2.646.589,2.649,2.732q.01,9.211,0,18.422v1.972c4.12,0,8.012,0,11.9,0,2.515,0,3,.487,3.006,3.019q.013,9.055,0,18.11v2a20.445,20.445,0,0,1,2.2.013c1.192.142,1.5-.365,1.5-1.505-.033-12.177-.009-24.355-.06-36.532a2.573,2.573,0,0,0-.894-1.778c-10.985-8.42-22.023-16.771-33-25.2a2.045,2.045,0,0,0-3.033.008q-16.277,12.506-32.665,24.869a2.843,2.843,0,0,0-1.3,2.576c.042,11.657.025,23.314.025,34.971a4.679,4.679,0,0,0,.045,1.547,1.672,1.672,0,0,0,.974.987,14.974,14.974,0,0,0,2.656.046v-2q0-8.821,0-17.642c0-3.171.315-3.485,3.48-3.486Zm-23.531,33.831c-.382,2.936-.382,2.938,2.131,2.938h76.526a7.535,7.535,0,0,0,1.556-.05c.271-.058.686-.4.688-.624.046-2.995.031-5.991.031-9.013h-81v2.877h62.818c2.525,0,3.439.5,3.47,1.894.03,1.447-.922,1.979-3.546,1.979h-62.673Zm-.147-55.866c.063,2.154,1.751,3.177,3.275,2.417a10.162,10.162,0,0,0,1.534-1.068q16.772-12.767,33.543-25.54c2.025-1.543,2.356-1.547,4.345-.032q16.709,12.721,33.418,25.446a13.27,13.27,0,0,0,1.515,1.1,2.086,2.086,0,0,0,2.928-.506,2.076,2.076,0,0,0-.205-2.958,9.913,9.913,0,0,0-.95-.809q-18.772-14.9-37.527-29.829a1.731,1.731,0,0,0-2.636-.026c-5.621,4.555-11.31,9.025-16.977,13.525q-10.393,8.254-20.772,16.526A10.187,10.187,0,0,0-5554,1504.391Zm63.044,26.035c0,3.126.011,6.088,0,9.049-.011,2.525-1.28,3.5-3.452,2.281a7.768,7.768,0,0,0-8.3,0c-2.191,1.218-3.4.272-3.411-2.3-.015-2.6.029-5.206-.038-7.806-.012-.443-.418-1.233-.692-1.255-1.526-.124-3.068-.059-4.572-.059v19.115h25.7v-19.027Zm-50.272,19.035h25.706V1530.32c-1.427,0-2.724.041-4.017-.013-.952-.039-1.283.339-1.27,1.277.04,2.55.018,5.1.01,7.65-.01,2.891-1.172,3.8-3.638,2.441a7.424,7.424,0,0,0-7.858,0c-2.448,1.34-3.662.4-3.667-2.438-.006-2.9,0-5.8,0-8.787h-5.265Zm14.978-42.286v19.164h25.591v-19.174c-1.344,0-2.584.056-3.815-.017-1.068-.064-1.474.281-1.444,1.4.069,2.65.034,5.3.017,7.957-.016,2.343-1.265,3.312-3.274,2.172a7.975,7.975,0,0,0-8.581.01c-2,1.124-3.242.147-3.258-2.2-.016-2.7.029-5.411-.042-8.114-.01-.405-.48-1.117-.783-1.143C-5523.278,1507.109-5524.727,1507.176-5526.255,1507.176Zm16.468,7.243c0-2.5.042-4.469-.047-6.429-.012-.288-.633-.768-.989-.784-1.767-.081-3.54-.064-5.309-.012-.33.01-.929.325-.935.514-.067,2.089-.042,4.181-.042,6.723C-5514.578,1512.568-5512.334,1512.581-5509.787,1514.419Zm-22.229,23.225c2.522-2.166,4.857-1.716,7.191-.34v-6.976c-2.175,0-4.238-.034-6.3.036a1.188,1.188,0,0,0-.854.782C-5532.052,1533.1-5532.016,1535.055-5532.016,1537.644Zm29.895-.033c2.442-2.134,4.734-1.7,7.209-.261,0-2.336.029-4.3-.035-6.253a1.073,1.073,0,0,0-.748-.731c-2.109-.061-4.222-.033-6.426-.033Z" transform="translate(0)" fill="#fff"/>
        <path id="Path_131" data-name="Path 131" d="M-5467.135,1579.448a2.29,2.29,0,0,1-2.408-2.464,2.158,2.158,0,0,1,2.361-2.127,2.2,2.2,0,0,1,2.226,2.445A2.163,2.163,0,0,1-5467.135,1579.448Z" transform="translate(-18.351 -20.636)" fill="#fff"/>
      </g>
    </g>
    <g id="Group_187" data-name="Group 187" transform="translate(6458 -480.971)">
      <text id="Square" transform="translate(327 335.971)" fill="#023f67" font-size="109" font-family="DMSans-Bold, DM Sans" font-weight="700"><tspan x="0" y="0">Cold Chain</tspan></text>
    </g>
  </g>
</svg>
